<svg xmlns="http://www.w3.org/2000/svg" width="100" height="100" fill="none" viewBox="0 0 100 100"><g clip-path="url(#a)"><mask id="b" width="100" height="100" x="0" y="0" maskUnits="userSpaceOnUse" style="mask-type:luminance"><path fill="#fff" d="M50.8.3c27.5 0 49 22.3 49 49.8S77.7 99.5 51 99.5c-9.4 0-14-1.3-21.4-6.6q-.9-.4-1.6.2c-5.6 6-20.2 10.3-20.8 2C7.2 80.9 0 71.5 0 50A50 50 0 0 1 50.8.3m.7 24.5c-13-.7-23.2 8.4-25.5 22.6-1.9 11.7 1.4 26 4.3 26.8 1.2.3 4-2 6.2-3.9a1 1 0 0 1 1.4-.2q5 3.2 11 3.8c13.5.7 25.4-9.8 26-23.3a25 25 0 0 0-23.4-25.8"/></mask><g mask="url(#b)"><path fill="url(#c)" d="m49.7 50-62.1 34.5-2.8-5.5z"/><path fill="url(#d)" d="m49.7 50-64.9 29-2.2-5.8z"/><path fill="url(#e)" d="m49.7 50-67.1 23.2-1.8-6z"/><path fill="url(#f)" d="m49.7 50-68.9 17.3-1.2-6.1z"/><path fill="url(#g)" d="m49.7 50-70.1 11.2-.7-6.2z"/><path fill="url(#h)" d="m49.7 50-70.8 5-.2-6.2z"/><path fill="url(#i)" d="m49.7 50-71-1.2q0-3 .4-6.1z"/><path fill="url(#j)" d="m49.7 50-70.6-7.3q.3-3.1.9-6.2z"/><path fill="url(#k)" d="M49.7 50-20 36.6l1.4-6z"/><path fill="url(#l)" d="m49.7 50-68.3-19.5 2-5.9z"/><path fill="url(#m)" d="m49.7 50-66.3-25.4L-14 19z"/><path fill="url(#n)" d="m49.7 50-63.8-31 3-5.5z"/><path fill="url(#o)" d="m49.7 50-60.9-36.5 3.5-5.2z"/><path fill="url(#p)" d="M49.7 50-7.7 8.4-4 3.5z"/><path fill="url(#q)" d="M49.7 50-3.9 3.6.4-1z"/><path fill="url(#r)" d="M49.7 50 .4-1 5-5.1z"/><path fill="url(#s)" d="M49.7 50 5-5l5-3.7z"/><path fill="url(#t)" d="M49.7 50 10-8.7l5.3-3.2z"/><path fill="url(#u)" d="M49.7 50 15.3-12q2.7-1.5 5.5-2.8z"/><path fill="url(#v)" d="M49.7 50 20.8-14.7l5.8-2.3z"/><path fill="url(#w)" d="M49.7 50 26.6-17l6-1.8z"/><path fill="url(#x)" d="M49.7 50 32.5-18.7l6-1.3z"/><path fill="url(#y)" d="M49.7 50 38.6-20l6.2-.7z"/><path fill="url(#z)" d="m49.7 50-5-70.8q3.2-.2 6.2-.1z"/><path fill="url(#A)" d="m49.7 50 1.2-71q3.1.1 6.2.5z"/><path fill="url(#B)" d="m49.7 50 7.4-70.5q3.1.3 6.2.9z"/><path fill="url(#C)" d="m49.7 50 13.6-69.6 6 1.4z"/><path fill="url(#D)" d="m49.7 50 19.6-68.2 5.8 2z"/><path fill="url(#E)" d="m49.7 50 25.4-66.2 5.7 2.5z"/><path fill="url(#F)" d="m49.7 50 31.1-63.7 5.5 3z"/><path fill="url(#G)" d="m49.7 50 36.6-60.8 5.1 3.4z"/><path fill="url(#H)" d="M49.7 50 91.4-7.3l4.9 3.9z"/><path fill="url(#I)" d="M49.7 50 96.3-3.4l4.5 4.3z"/><path fill="url(#J)" d="m49.7 50 51-49.2 4.2 4.6z"/><path fill="url(#K)" d="m49.7 50 55.2-44.6 3.7 5z"/><path fill="url(#L)" d="m49.7 50 58.9-39.6 3.2 5.3z"/><path fill="url(#M)" d="m49.7 50 62.1-34.3q1.5 2.7 2.8 5.5z"/><path fill="url(#N)" d="m49.7 50 64.9-28.8 2.2 5.8z"/><path fill="url(#O)" d="m49.7 50 67.1-23 1.8 6z"/><path fill="url(#P)" d="m49.7 50 68.9-17 1.2 6z"/><path fill="url(#Q)" d="m49.7 50 70.1-11 .7 6.1z"/><path fill="url(#R)" d="m49.7 50 70.8-4.9q.3 3.1.2 6.2z"/><path fill="url(#S)" d="m49.7 50 71 1.3-.4 6.2z"/><path fill="url(#T)" d="m49.7 50 70.6 7.5-.9 6.1z"/><path fill="url(#U)" d="m49.7 50 69.7 13.6-1.4 6z"/><path fill="url(#V)" d="M49.7 50 118 69.8l-2 5.8z"/><path fill="url(#W)" d="M49.7 50 116 75.6l-2.5 5.7z"/><path fill="url(#X)" d="m49.7 50 63.8 31.2-3 5.5z"/><path fill="url(#Y)" d="m49.7 50 60.9 36.7-3.5 5.1z"/><path fill="url(#Z)" d="m49.7 50 57.4 41.8-3.8 4.9z"/><path fill="url(#aa)" d="m49.7 50 53.6 46.7-4.3 4.5z"/><path fill="url(#ab)" d="M49.7 50 99 101.3l-4.6 4z"/><path fill="url(#ac)" d="m49.7 50 44.7 55.3-5 3.7z"/><path fill="url(#ad)" d="m49.7 50 39.7 59-5.3 3.2z"/><path fill="url(#ae)" d="m49.7 50 34.4 62.2-5.5 2.8z"/><path fill="url(#af)" d="m49.7 50 28.9 65-5.8 2.2z"/><path fill="url(#ag)" d="m49.7 50 23.1 67.2-6 1.8z"/><path fill="url(#ah)" d="m49.7 50 17.2 69-6 1.2z"/><path fill="url(#ai)" d="m49.7 50 11.1 70.2-6.1.7z"/><path fill="url(#aj)" d="m49.7 50 5 71h-6.2z"/><path fill="url(#ak)" d="m49.7 50-1.2 71-6.2-.3z"/><path fill="url(#al)" d="m49.7 50-7.4 70.7-6.1-1z"/><path fill="url(#am)" d="m49.7 50-13.5 69.8-6-1.5z"/><path fill="url(#an)" d="m49.7 50-19.6 68.3-5.8-2z"/><path fill="url(#ao)" d="m49.7 50-25.4 66.4-5.7-2.5z"/><path fill="url(#ap)" d="m49.7 50-31.1 64-5.5-3z"/><path fill="url(#aq)" d="m49.7 50-36.6 61-5.1-3.5z"/><path fill="url(#ar)" d="M49.7 50 8 107.6l-5-3.9z"/><path fill="url(#as)" d="M49.7 50 3.1 103.8l-4.5-4.3z"/><path fill="url(#at)" d="m49.7 50-51 49.4-4.2-4.6z"/><path fill="url(#au)" d="M49.7 50-5.5 94.9l-3.7-5z"/><path fill="url(#av)" d="M49.7 50-9.2 89.9l-3.2-5.3z"/><g filter="url(#aw)"><path fill="url(#ax)" d="m49.7 50-62.1 34.5-2.8-5.5z"/><path fill="url(#ay)" d="m49.7 50-64.9 29-2.2-5.8z"/><path fill="url(#az)" d="m49.7 50-67.1 23.2-1.8-6z"/><path fill="url(#aA)" d="m49.7 50-68.9 17.3-1.2-6.1z"/><path fill="url(#aB)" d="m49.7 50-70.1 11.2-.7-6.2z"/><path fill="url(#aC)" d="m49.7 50-70.8 5-.2-6.2z"/><path fill="url(#aD)" d="m49.7 50-71-1.2q0-3 .4-6.1z"/><path fill="url(#aE)" d="m49.7 50-70.6-7.3q.3-3.1.9-6.2z"/><path fill="url(#aF)" d="M49.7 50-20 36.6l1.4-6z"/><path fill="url(#aG)" d="m49.7 50-68.3-19.5 2-5.9z"/><path fill="url(#aH)" d="m49.7 50-66.3-25.4L-14 19z"/><path fill="url(#aI)" d="m49.7 50-63.8-31 3-5.5z"/><path fill="url(#aJ)" d="m49.7 50-60.9-36.5 3.5-5.2z"/><path fill="url(#aK)" d="M49.7 50-7.7 8.4-4 3.5z"/><path fill="url(#aL)" d="M49.7 50-3.9 3.6.4-1z"/><path fill="url(#aM)" d="M49.7 50 .4-1 5-5.1z"/><path fill="url(#aN)" d="M49.7 50 5-5l5-3.7z"/><path fill="url(#aO)" d="M49.7 50 10-8.7l5.3-3.2z"/><path fill="url(#aP)" d="M49.7 50 15.3-12q2.7-1.5 5.5-2.8z"/><path fill="url(#aQ)" d="M49.7 50 20.8-14.7l5.8-2.3z"/><path fill="url(#aR)" d="M49.7 50 26.6-17l6-1.8z"/><path fill="url(#aS)" d="M49.7 50 32.5-18.7l6-1.3z"/><path fill="url(#aT)" d="M49.7 50 38.6-20l6.2-.7z"/><path fill="url(#aU)" d="m49.7 50-5-70.8q3.2-.2 6.2-.1z"/><path fill="url(#aV)" d="m49.7 50 1.2-71q3.1.1 6.2.5z"/><path fill="url(#aW)" d="m49.7 50 7.4-70.5q3.1.3 6.2.9z"/><path fill="url(#aX)" d="m49.7 50 13.6-69.6 6 1.4z"/><path fill="url(#aY)" d="m49.7 50 19.6-68.2 5.8 2z"/><path fill="url(#aZ)" d="m49.7 50 25.4-66.2 5.7 2.5z"/><path fill="url(#ba)" d="m49.7 50 31.1-63.7 5.5 3z"/><path fill="url(#bb)" d="m49.7 50 36.6-60.8 5.1 3.4z"/><path fill="url(#bc)" d="M49.7 50 91.4-7.3l4.9 3.9z"/><path fill="url(#bd)" d="M49.7 50 96.3-3.4l4.5 4.3z"/><path fill="url(#be)" d="m49.7 50 51-49.2 4.2 4.6z"/><path fill="url(#bf)" d="m49.7 50 55.2-44.6 3.7 5z"/><path fill="url(#bg)" d="m49.7 50 58.9-39.6 3.2 5.3z"/><path fill="url(#bh)" d="m49.7 50 62.1-34.3q1.5 2.7 2.8 5.5z"/><path fill="url(#bi)" d="m49.7 50 64.9-28.8 2.2 5.8z"/><path fill="url(#bj)" d="m49.7 50 67.1-23 1.8 6z"/><path fill="url(#bk)" d="m49.7 50 68.9-17 1.2 6z"/><path fill="url(#bl)" d="m49.7 50 70.1-11 .7 6.1z"/><path fill="url(#bm)" d="m49.7 50 70.8-4.9q.3 3.1.2 6.2z"/><path fill="url(#bn)" d="m49.7 50 71 1.3-.4 6.2z"/><path fill="url(#bo)" d="m49.7 50 70.6 7.5-.9 6.1z"/><path fill="url(#bp)" d="m49.7 50 69.7 13.6-1.4 6z"/><path fill="url(#bq)" d="M49.7 50 118 69.8l-2 5.8z"/><path fill="url(#br)" d="M49.7 50 116 75.6l-2.5 5.7z"/><path fill="url(#bs)" d="m49.7 50 63.8 31.2-3 5.5z"/><path fill="url(#bt)" d="m49.7 50 60.9 36.7-3.5 5.1z"/><path fill="url(#bu)" d="m49.7 50 57.4 41.8-3.8 4.9z"/><path fill="url(#bv)" d="m49.7 50 53.6 46.7-4.3 4.5z"/><path fill="url(#bw)" d="M49.7 50 99 101.3l-4.6 4z"/><path fill="url(#bx)" d="m49.7 50 44.7 55.3-5 3.7z"/><path fill="url(#by)" d="m49.7 50 39.7 59-5.3 3.2z"/><path fill="url(#bz)" d="m49.7 50 34.4 62.2-5.5 2.8z"/><path fill="url(#bA)" d="m49.7 50 28.9 65-5.8 2.2z"/><path fill="url(#bB)" d="m49.7 50 23.1 67.2-6 1.8z"/><path fill="url(#bC)" d="m49.7 50 17.2 69-6 1.2z"/><path fill="url(#bD)" d="m49.7 50 11.1 70.2-6.1.7z"/><path fill="url(#bE)" d="m49.7 50 5 71h-6.2z"/><path fill="url(#bF)" d="m49.7 50-1.2 71-6.2-.3z"/><path fill="url(#bG)" d="m49.7 50-7.4 70.7-6.1-1z"/><path fill="url(#bH)" d="m49.7 50-13.5 69.8-6-1.5z"/><path fill="url(#bI)" d="m49.7 50-19.6 68.3-5.8-2z"/><path fill="url(#bJ)" d="m49.7 50-25.4 66.4-5.7-2.5z"/><path fill="url(#bK)" d="m49.7 50-31.1 64-5.5-3z"/><path fill="url(#bL)" d="m49.7 50-36.6 61-5.1-3.5z"/><path fill="url(#bM)" d="M49.7 50 8 107.6l-5-3.9z"/><path fill="url(#bN)" d="M49.7 50 3.1 103.8l-4.5-4.3z"/><path fill="url(#bO)" d="m49.7 50-51 49.4-4.2-4.6z"/><path fill="url(#bP)" d="M49.7 50-5.5 94.9l-3.7-5z"/><path fill="url(#bQ)" d="M49.7 50-9.2 89.9l-3.2-5.3z"/></g><g filter="url(#bR)" style="mix-blend-mode:overlay"><path fill="#00eaff" d="m46.7 9.1 3.2.2q-1.5 0-3.2.4A45 45 0 0 0 22 22.3 45 45 0 0 0 9.4 47L9 50.2 8.8 47A38 38 0 0 1 46.7 9"/></g><g filter="url(#bS)" style="mix-blend-mode:hard-light"><path fill="url(#bT)" d="M46.7 9.3h3.2l-3.2.2A42 42 0 0 0 9.2 47L9 50.2V47A39.7 39.7 0 0 1 46.7 9.3"/></g><g filter="url(#bU)"><path fill="url(#bV)" d="M46.7 9.3h3.2l-3.2.2A42 42 0 0 0 9.2 47L9 50.2V47A39.7 39.7 0 0 1 46.7 9.3" opacity=".6" style="mix-blend-mode:hard-light"/></g><g filter="url(#bW)" style="mix-blend-mode:hard-light"><path fill="url(#bX)" d="M46.7 9.3h3.2l-3.2.2A43 43 0 0 0 9.2 47L9 50.2V47A39.3 39.3 0 0 1 46.7 9.3"/></g><g filter="url(#bY)" style="mix-blend-mode:overlay"><path fill="url(#bZ)" d="M93.7 50.2A44 44 0 0 1 90.4 67a44 44 0 0 1-9.5 14.2 44 44 0 0 1-14.2 9.5A44 44 0 0 1 49.9 94v-5.8q7.6 0 14.5-2.8A38 38 0 0 0 76.8 77 38 38 0 0 0 85 64.8a38 38 0 0 0 3-14.6z" opacity=".4"/></g><g filter="url(#ca)" style="mix-blend-mode:overlay"><path fill="url(#cb)" d="M90.7 50.3A40.7 40.7 0 1 0 49.9 91v.2h-.5A41 41 0 0 1 9 50.8v-.5a41 41 0 0 1 41-41h.5a41 41 0 0 1 40.4 41v.5a41 41 0 0 1-41 40.4V91a40.7 40.7 0 0 0 40.8-40.7"/></g><g filter="url(#cc)" style="mix-blend-mode:overlay"><path fill="url(#cd)" d="M90.7 50.3A40.7 40.7 0 1 0 49.9 91v.2h-.5A41 41 0 0 1 9 50.8v-.5a41 41 0 0 1 41-41h.5a41 41 0 0 1 40.4 41v.5a41 41 0 0 1-41 40.4V91a40.7 40.7 0 0 0 40.8-40.7"/></g><g filter="url(#ce)" style="mix-blend-mode:overlay"><path fill="#fff" d="M90.7 50.3A40.7 40.7 0 1 0 49.9 91v.2h-.5A41 41 0 0 1 9 50.8v-.5a41 41 0 0 1 41-41h.5a41 41 0 0 1 40.4 41v.5a41 41 0 0 1-41 40.4V91a40.7 40.7 0 0 0 40.8-40.7"/></g><g filter="url(#cf)" style="mix-blend-mode:overlay"><path fill="url(#cg)" d="M90.7 50.3A40.7 40.7 0 1 0 49.9 91v.2h-.5A41 41 0 0 1 9 50.8v-.5a41 41 0 0 1 41-41h.5a41 41 0 0 1 40.4 41v.5a41 41 0 0 1-41 40.4V91a40.7 40.7 0 0 0 40.8-40.7"/></g><g filter="url(#ch)" style="mix-blend-mode:screen"><path fill="url(#ci)" d="M90.5 50.3A40.6 40.6 0 1 0 50 90.8v.4h-.5A41 41 0 0 1 9 50.8v-.5a41 41 0 0 1 41-41h.5a41 41 0 0 1 40.4 41v.5a41 41 0 0 1-41 40.4v-.4a40.6 40.6 0 0 0 40.6-40.5"/></g><g filter="url(#cj)" style="mix-blend-mode:hard-light"><path fill="url(#ck)" d="M90.2 50.3a40.2 40.2 0 1 0-40.3 40.2v.7h-.5A41 41 0 0 1 9 50.8v-.5a41 41 0 0 1 41-41h.5a41 41 0 0 1 40.4 41v.5a41 41 0 0 1-41 40.4v-.7c22.3 0 40.3-18 40.3-40.2"/></g><g filter="url(#cl)" style="mix-blend-mode:multiply"><path fill="#000" d="M82.3 50.3A32.4 32.4 0 1 0 50 82.7v.7h-.4a33 33 0 0 1-32.7-32.7v-.4A33 33 0 0 1 50 17.2h.5a33 33 0 0 1 32.6 33v.5c-.2 18-15 32.7-33 32.7v-.7a32.4 32.4 0 0 0 32.3-32.4"/></g><g filter="url(#cm)" opacity=".7" style="mix-blend-mode:overlay"><path fill="#000" d="M82.3 50.3A32.4 32.4 0 1 0 50 82.7v.7h-.4a33 33 0 0 1-32.7-32.7v-.4A33 33 0 0 1 50 17.2h.5a33 33 0 0 1 32.6 33v.5c-.2 18-15 32.7-33 32.7v-.7a32.4 32.4 0 0 0 32.3-32.4"/></g><g filter="url(#cn)" style="mix-blend-mode:overlay"><path fill="url(#co)" d="M93.7 50.2A44 44 0 0 1 90.4 67a44 44 0 0 1-9.5 14.2 44 44 0 0 1-14.2 9.5A44 44 0 0 1 49.9 94v-5.8q7.6 0 14.5-2.8A38 38 0 0 0 76.8 77 38 38 0 0 0 85 64.8a38 38 0 0 0 3-14.6z" opacity=".4"/></g><g filter="url(#cp)" opacity=".2" style="mix-blend-mode:overlay"><path fill="#00eaff" d="m46.7 9.1 3.2.2q-1.5 0-3.2.4A45 45 0 0 0 22 22.3 45 45 0 0 0 9.4 47L9 50.2 8.8 47A38 38 0 0 1 46.7 9"/></g></g></g><defs><linearGradient id="c" x1="25.8" x2="4" y1="62.3" y2="73" gradientUnits="userSpaceOnUse"><stop stop-color="#19baff"/><stop offset="1" stop-color="#0fb0ff"/></linearGradient><linearGradient id="d" x1="25.7" x2="2.4" y1="59.5" y2="68.7" gradientUnits="userSpaceOnUse"><stop stop-color="#16b5ff"/><stop offset="1" stop-color="#0eadff"/></linearGradient><linearGradient id="e" x1="25" x2="1.2" y1="57.8" y2="64.6" gradientUnits="userSpaceOnUse"><stop stop-color="#16b5ff"/><stop offset="1" stop-color="#10a9ff"/></linearGradient><linearGradient id="f" x1="24.7" x2="1.4" y1="55.2" y2="59.9" gradientUnits="userSpaceOnUse"><stop stop-color="#16b1ff"/><stop offset="1" stop-color="#10a5ff"/></linearGradient><linearGradient id="g" x1="24.8" x2="1.3" y1="52.9" y2="55.6" gradientUnits="userSpaceOnUse"><stop stop-color="#15a9ff"/><stop offset="1" stop-color="#11a1ff"/></linearGradient><linearGradient id="h" x1="25.2" x2=".7" y1="50.6" y2="51.3" gradientUnits="userSpaceOnUse"><stop stop-color="#159fff"/><stop offset="1" stop-color="#129dff"/></linearGradient><linearGradient id="i" x1="25.6" x2=".3" y1="48.3" y2="46.9" gradientUnits="userSpaceOnUse"><stop stop-color="#1699ff"/><stop offset="1" stop-color="#1591ff"/></linearGradient><linearGradient id="j" x1="26.2" x2=".7" y1="45.8" y2="42.4" gradientUnits="userSpaceOnUse"><stop stop-color="#1591ff"/><stop offset="1" stop-color="#1785ff"/></linearGradient><linearGradient id="k" x1="25.9" x2="2.2" y1="44.5" y2="38.7" gradientUnits="userSpaceOnUse"><stop stop-color="#1487ff"/><stop offset="1" stop-color="#187fff"/></linearGradient><linearGradient id="l" x1="26.8" x2="3.3" y1="41.9" y2="34.3" gradientUnits="userSpaceOnUse"><stop stop-color="#157fff"/><stop offset="1" stop-color="#1973ff"/></linearGradient><linearGradient id="m" x1="27.3" x2="4.8" y1="40.5" y2="30.6" gradientUnits="userSpaceOnUse"><stop stop-color="#1777ff"/><stop offset="1" stop-color="#1b6cff"/></linearGradient><linearGradient id="n" x1="27.7" x2="6.4" y1="38.1" y2="26.5" gradientUnits="userSpaceOnUse"><stop stop-color="#1771ff"/><stop offset="1" stop-color="#1d62ff"/></linearGradient><linearGradient id="o" x1="29" x2="9" y1="36.8" y2="23.3" gradientUnits="userSpaceOnUse"><stop stop-color="#186aff"/><stop offset="1" stop-color="#1c59ff"/></linearGradient><linearGradient id="p" x1="30.6" x2="11.4" y1="34.5" y2="19.5" gradientUnits="userSpaceOnUse"><stop stop-color="#1962ff"/><stop offset="1" stop-color="#1e53ff"/></linearGradient><linearGradient id="q" x1="31.9" x2="14.3" y1="32.6" y2="16.2" gradientUnits="userSpaceOnUse"><stop stop-color="#1a5cff"/><stop offset="1" stop-color="#1f4fff"/></linearGradient><linearGradient id="r" x1="33.3" x2="17.6" y1="31.4" y2="13.7" gradientUnits="userSpaceOnUse"><stop stop-color="#1b57ff"/><stop offset="1" stop-color="#2246ff"/></linearGradient><linearGradient id="s" x1="35.2" x2="20.8" y1="29.7" y2="10.6" gradientUnits="userSpaceOnUse"><stop stop-color="#1e52ff"/><stop offset="1" stop-color="#2343ff"/></linearGradient><linearGradient id="t" x1="36.5" x2="24.1" y1="28.8" y2="8.5" gradientUnits="userSpaceOnUse"><stop stop-color="#204dff"/><stop offset="1" stop-color="#263dff"/></linearGradient><linearGradient id="u" x1="38.4" x2="27.9" y1="27.3" y2="6.3" gradientUnits="userSpaceOnUse"><stop stop-color="#2049ff"/><stop offset="1" stop-color="#2838ff"/></linearGradient><linearGradient id="v" x1="40.2" x2="31.8" y1="26.1" y2="4.7" gradientUnits="userSpaceOnUse"><stop stop-color="#2245ff"/><stop offset="1" stop-color="#2935ff"/></linearGradient><linearGradient id="w" x1="42.3" x2="35.9" y1="25.3" y2="3.5" gradientUnits="userSpaceOnUse"><stop stop-color="#2641ff"/><stop offset="1" stop-color="#2b32ff"/></linearGradient><linearGradient id="x" x1="44.7" x2="40" y1="25.1" y2="2.3" gradientUnits="userSpaceOnUse"><stop stop-color="#273eff"/><stop offset="1" stop-color="#2d2dff"/></linearGradient><linearGradient id="y" x1="47.1" x2="44.3" y1="24.6" y2="1.5" gradientUnits="userSpaceOnUse"><stop stop-color="#2a3bff"/><stop offset="1" stop-color="#2e2cff"/></linearGradient><linearGradient id="z" x1="48.9" x2="48.4" y1="24.2" y2="1.4" gradientUnits="userSpaceOnUse"><stop stop-color="#2f38ff"/><stop offset="1" stop-color="#2f28ff"/></linearGradient><linearGradient id="A" x1="51" x2="52.6" y1="24.8" y2="1.1" gradientUnits="userSpaceOnUse"><stop stop-color="#3336ff"/><stop offset="1" stop-color="#3c22fe"/></linearGradient><linearGradient id="B" x1="53.2" x2="56.8" y1="24.8" y2="1.6" gradientUnits="userSpaceOnUse"><stop stop-color="#3931ff"/><stop offset="1" stop-color="#3c22fe"/></linearGradient><linearGradient id="C" x1="56.2" x2="61.5" y1="25.2" y2="1.8" gradientUnits="userSpaceOnUse"><stop stop-color="#3d30ff"/><stop offset="1" stop-color="#4120fe"/></linearGradient><linearGradient id="D" x1="57.4" x2="65.1" y1="25.1" y2="3" gradientUnits="userSpaceOnUse"><stop stop-color="#422dff"/><stop offset="1" stop-color="#441dfe"/></linearGradient><linearGradient id="E" x1="59.8" x2="68.7" y1="25.2" y2="5.7" gradientUnits="userSpaceOnUse"><stop stop-color="#4729ff"/><stop offset="1" stop-color="#471cfe"/></linearGradient><linearGradient id="F" x1="62.3" x2="73.1" y1="27" y2="7.1" gradientUnits="userSpaceOnUse"><stop stop-color="#4b27ff"/><stop offset="1" stop-color="#4e19fd"/></linearGradient><linearGradient id="G" x1="63.7" x2="76.8" y1="28.3" y2="8.8" gradientUnits="userSpaceOnUse"><stop stop-color="#5225ff"/><stop offset="1" stop-color="#5416fe"/></linearGradient><linearGradient id="H" x1="65.5" x2="79.9" y1="28.9" y2="11.5" gradientUnits="userSpaceOnUse"><stop stop-color="#5821ff"/><stop offset="1" stop-color="#5813fd"/></linearGradient><linearGradient id="I" x1="67.3" x2="83.2" y1="30.9" y2="14.5" gradientUnits="userSpaceOnUse"><stop stop-color="#5c20ff"/><stop offset="1" stop-color="#5c12fd"/></linearGradient><linearGradient id="J" x1="69.4" x2="87.1" y1="32.6" y2="17" gradientUnits="userSpaceOnUse"><stop stop-color="#621dff"/><stop offset="1" stop-color="#6210fc"/></linearGradient><linearGradient id="K" x1="70.8" x2="89.3" y1="34.7" y2="20.9" gradientUnits="userSpaceOnUse"><stop stop-color="#651bff"/><stop offset="1" stop-color="#670cfd"/></linearGradient><linearGradient id="L" x1="71.8" x2="91.5" y1="36.4" y2="24.4" gradientUnits="userSpaceOnUse"><stop stop-color="#6b1aff"/><stop offset="1" stop-color="#6c0cfc"/></linearGradient><linearGradient id="M" x1="73.2" x2="95" y1="38.1" y2="27.4" gradientUnits="userSpaceOnUse"><stop stop-color="#7116ff"/><stop offset="1" stop-color="#710afc"/></linearGradient><linearGradient id="N" x1="73.7" x2="96.4" y1="40.6" y2="31.7" gradientUnits="userSpaceOnUse"><stop stop-color="#7615ff"/><stop offset="1" stop-color="#7309fb"/></linearGradient><linearGradient id="O" x1="74.7" x2="97.1" y1="42.4" y2="35.9" gradientUnits="userSpaceOnUse"><stop stop-color="#7813ff"/><stop offset="1" stop-color="#7809fc"/></linearGradient><linearGradient id="P" x1="75.2" x2="98.4" y1="45.5" y2="40.5" gradientUnits="userSpaceOnUse"><stop stop-color="#7a13ff"/><stop offset="1" stop-color="#7b08fc"/></linearGradient><linearGradient id="Q" x1="75.3" x2="98.7" y1="47.5" y2="44.6" gradientUnits="userSpaceOnUse"><stop stop-color="#8114ff"/><stop offset="1" stop-color="#8007fb"/></linearGradient><linearGradient id="R" x1="75.8" x2="98.8" y1="49.1" y2="48.7" gradientUnits="userSpaceOnUse"><stop stop-color="#8114ff"/><stop offset="1" stop-color="#8007fb"/></linearGradient><linearGradient id="S" x1="75.5" x2="98.8" y1="50.4" y2="52.5" gradientUnits="userSpaceOnUse"><stop stop-color="#8315ff"/><stop offset="1" stop-color="#8109fc"/></linearGradient><linearGradient id="T" x1="75.1" x2="99.5" y1="53.3" y2="57.2" gradientUnits="userSpaceOnUse"><stop stop-color="#8315ff"/><stop offset="1" stop-color="#8109fc"/></linearGradient><linearGradient id="U" x1="74.7" x2="99" y1="55.7" y2="61.7" gradientUnits="userSpaceOnUse"><stop stop-color="#8419ff"/><stop offset="1" stop-color="#8109fb"/></linearGradient><linearGradient id="V" x1="73.9" x2="97.2" y1="58.6" y2="66.1" gradientUnits="userSpaceOnUse"><stop stop-color="#8419ff"/><stop offset="1" stop-color="#800afa"/></linearGradient><linearGradient id="W" x1="72.8" x2="95" y1="60.5" y2="69.9" gradientUnits="userSpaceOnUse"><stop stop-color="#841aff"/><stop offset="1" stop-color="#810cfc"/></linearGradient><linearGradient id="X" x1="72" x2="94.7" y1="61.8" y2="74.4" gradientUnits="userSpaceOnUse"><stop stop-color="#821cff"/><stop offset="1" stop-color="#7e0dfa"/></linearGradient><linearGradient id="Y" x1="71.2" x2="92.4" y1="64.2" y2="78.3" gradientUnits="userSpaceOnUse"><stop stop-color="#8221ff"/><stop offset="1" stop-color="#7c11fc"/></linearGradient><linearGradient id="Z" x1="69.1" x2="88.6" y1="66.1" y2="81.3" gradientUnits="userSpaceOnUse"><stop stop-color="#7f24ff"/><stop offset="1" stop-color="#7a16fc"/></linearGradient><linearGradient id="aa" x1="67.7" x2="85" y1="68.2" y2="84.1" gradientUnits="userSpaceOnUse"><stop stop-color="#7e29ff"/><stop offset="1" stop-color="#751bfc"/></linearGradient><linearGradient id="ab" x1="66.5" x2="82.3" y1="68.9" y2="86.8" gradientUnits="userSpaceOnUse"><stop stop-color="#792fff"/><stop offset="1" stop-color="#7121fd"/></linearGradient><linearGradient id="ac" x1="64.5" x2="78.7" y1="70.6" y2="89.6" gradientUnits="userSpaceOnUse"><stop stop-color="#7732ff"/><stop offset="1" stop-color="#6f28fc"/></linearGradient><linearGradient id="ad" x1="62.6" x2="75.1" y1="71.4" y2="91.6" gradientUnits="userSpaceOnUse"><stop stop-color="#7438ff"/><stop offset="1" stop-color="#692dfc"/></linearGradient><linearGradient id="ae" x1="61.6" x2="71.9" y1="72.5" y2="94" gradientUnits="userSpaceOnUse"><stop stop-color="#713fff"/><stop offset="1" stop-color="#6434fc"/></linearGradient><linearGradient id="af" x1="58.3" x2="67.3" y1="73.5" y2="95.4" gradientUnits="userSpaceOnUse"><stop stop-color="#6c48ff"/><stop offset="1" stop-color="#623bfe"/></linearGradient><linearGradient id="ag" x1="57" x2="63.6" y1="74" y2="96.7" gradientUnits="userSpaceOnUse"><stop stop-color="#6651ff"/><stop offset="1" stop-color="#5c42fd"/></linearGradient><linearGradient id="ah" x1="55.3" x2="59.6" y1="75.3" y2="97.7" gradientUnits="userSpaceOnUse"><stop stop-color="#615aff"/><stop offset="1" stop-color="#594bfd"/></linearGradient><linearGradient id="ai" x1="52.4" x2="55.2" y1="74.4" y2="98.8" gradientUnits="userSpaceOnUse"><stop stop-color="#5e61ff"/><stop offset="1" stop-color="#5554fd"/></linearGradient><linearGradient id="aj" x1="51.5" x2="51.5" y1="74.8" y2="98.7" gradientUnits="userSpaceOnUse"><stop offset="0" stop-color="#576bff"/><stop offset="1" stop-color="#4a62fd"/></linearGradient><linearGradient id="ak" x1="48.4" x2="46.9" y1="75" y2="98.1" gradientUnits="userSpaceOnUse"><stop offset="0" stop-color="#5174ff"/><stop offset="1" stop-color="#466dfe"/></linearGradient><linearGradient id="al" x1="46.4" x2="42.7" y1="74.3" y2="98" gradientUnits="userSpaceOnUse"><stop offset="0" stop-color="#4b80ff"/><stop offset="1" stop-color="#3e79fd"/></linearGradient><linearGradient id="am" x1="43.5" x2="38.3" y1="73.6" y2="96.7" gradientUnits="userSpaceOnUse"><stop offset="0" stop-color="#458aff"/><stop offset="1" stop-color="#3981fe"/></linearGradient><linearGradient id="an" x1="41.9" x2="34.6" y1="72.8" y2="95" gradientUnits="userSpaceOnUse"><stop offset="0" stop-color="#4090ff"/><stop offset="1" stop-color="#338ffe"/></linearGradient><linearGradient id="ao" x1="40" x2="31" y1="71.9" y2="92.7" gradientUnits="userSpaceOnUse"><stop offset="0" stop-color="#3a9bff"/><stop offset="1" stop-color="#2f9bfe"/></linearGradient><linearGradient id="ap" x1="38.1" x2="23.3" y1="71.4" y2="98.6" gradientUnits="userSpaceOnUse"><stop offset="0" stop-color="#34a3ff"/><stop offset="1" stop-color="#269bfe"/></linearGradient><linearGradient id="aq" x1="35.1" x2="18" y1="72.1" y2="98.1" gradientUnits="userSpaceOnUse"><stop stop-color="#2faeff"/><stop offset="1" stop-color="#1d9cfe"/></linearGradient><linearGradient id="ar" x1="30.6" x2="12.2" y1="74.2" y2="97.2" gradientUnits="userSpaceOnUse"><stop stop-color="#2bb5ff"/><stop offset="1" stop-color="#14a1ff"/></linearGradient><linearGradient id="as" x1="27.8" x2="8.3" y1="72.4" y2="93.6" gradientUnits="userSpaceOnUse"><stop stop-color="#23baff"/><stop offset="1" stop-color="#10a5ff"/></linearGradient><linearGradient id="at" x1="26.7" x2="8.2" y1="70.3" y2="86.8" gradientUnits="userSpaceOnUse"><stop stop-color="#20bbff"/><stop offset="1" stop-color="#10abff"/></linearGradient><linearGradient id="au" x1="25.9" x2="6.6" y1="67.9" y2="82" gradientUnits="userSpaceOnUse"><stop stop-color="#1cbbff"/><stop offset="1" stop-color="#10adff"/></linearGradient><linearGradient id="av" x1="26" x2="5.4" y1="64.6" y2="77.2" gradientUnits="userSpaceOnUse"><stop stop-color="#1bbcff"/><stop offset="1" stop-color="#0faeff"/></linearGradient><linearGradient id="ax" x1="25.8" x2="4" y1="62.3" y2="73" gradientUnits="userSpaceOnUse"><stop stop-color="#00c4ff"/><stop offset=".5" stop-color="#1bbcff"/><stop offset="1" stop-color="#0faeff"/></linearGradient><linearGradient id="ay" x1="25.7" x2="2.4" y1="59.5" y2="68.7" gradientUnits="userSpaceOnUse"><stop stop-color="#1cbbff"/><stop offset="1" stop-color="#10adff"/></linearGradient><linearGradient id="az" x1="25" x2="1.2" y1="57.8" y2="64.6" gradientUnits="userSpaceOnUse"><stop stop-color="#16b5ff"/><stop offset="1" stop-color="#10a9ff"/></linearGradient><linearGradient id="aA" x1="24.7" x2="1.4" y1="55.2" y2="59.9" gradientUnits="userSpaceOnUse"><stop stop-color="#16b1ff"/><stop offset="1" stop-color="#10a5ff"/></linearGradient><linearGradient id="aB" x1="24.8" x2="1.3" y1="52.9" y2="55.6" gradientUnits="userSpaceOnUse"><stop stop-color="#15a9ff"/><stop offset="1" stop-color="#11a1ff"/></linearGradient><linearGradient id="aC" x1="25.2" x2=".7" y1="50.6" y2="51.3" gradientUnits="userSpaceOnUse"><stop stop-color="#159fff"/><stop offset="1" stop-color="#129dff"/></linearGradient><linearGradient id="aD" x1="25.6" x2=".3" y1="48.3" y2="46.9" gradientUnits="userSpaceOnUse"><stop stop-color="#1699ff"/><stop offset="1" stop-color="#1591ff"/></linearGradient><linearGradient id="aE" x1="26.2" x2=".7" y1="45.8" y2="42.4" gradientUnits="userSpaceOnUse"><stop stop-color="#1591ff"/><stop offset="1" stop-color="#1785ff"/></linearGradient><linearGradient id="aF" x1="25.9" x2="2.2" y1="44.5" y2="38.7" gradientUnits="userSpaceOnUse"><stop stop-color="#1487ff"/><stop offset="1" stop-color="#187fff"/></linearGradient><linearGradient id="aG" x1="26.8" x2="3.3" y1="41.9" y2="34.3" gradientUnits="userSpaceOnUse"><stop stop-color="#157fff"/><stop offset="1" stop-color="#1973ff"/></linearGradient><linearGradient id="aH" x1="27.3" x2="4.8" y1="40.5" y2="30.6" gradientUnits="userSpaceOnUse"><stop stop-color="#1774ff"/><stop offset="1" stop-color="#1a6aff"/></linearGradient><linearGradient id="aI" x1="27.7" x2="6.4" y1="38.1" y2="26.5" gradientUnits="userSpaceOnUse"><stop stop-color="#1771ff"/><stop offset="1" stop-color="#1d62ff"/></linearGradient><linearGradient id="aJ" x1="29" x2="9" y1="36.8" y2="23.3" gradientUnits="userSpaceOnUse"><stop stop-color="#186aff"/><stop offset="1" stop-color="#1c59ff"/></linearGradient><linearGradient id="aK" x1="30.6" x2="11.4" y1="34.5" y2="19.5" gradientUnits="userSpaceOnUse"><stop stop-color="#1962ff"/><stop offset="1" stop-color="#1e53ff"/></linearGradient><linearGradient id="aL" x1="31.9" x2="14.3" y1="32.6" y2="16.2" gradientUnits="userSpaceOnUse"><stop stop-color="#1a5cff"/><stop offset="1" stop-color="#1f4fff"/></linearGradient><linearGradient id="aM" x1="33.3" x2="17.6" y1="31.4" y2="13.7" gradientUnits="userSpaceOnUse"><stop stop-color="#1b57ff"/><stop offset="1" stop-color="#2246ff"/></linearGradient><linearGradient id="aN" x1="35.2" x2="20.8" y1="29.7" y2="10.6" gradientUnits="userSpaceOnUse"><stop stop-color="#1e52ff"/><stop offset="1" stop-color="#2343ff"/></linearGradient><linearGradient id="aO" x1="36.5" x2="24.1" y1="28.8" y2="8.5" gradientUnits="userSpaceOnUse"><stop stop-color="#204dff"/><stop offset="1" stop-color="#263dff"/></linearGradient><linearGradient id="aP" x1="38.4" x2="27.9" y1="27.3" y2="6.3" gradientUnits="userSpaceOnUse"><stop stop-color="#2049ff"/><stop offset="1" stop-color="#2838ff"/></linearGradient><linearGradient id="aQ" x1="40.2" x2="31.8" y1="26.1" y2="4.7" gradientUnits="userSpaceOnUse"><stop stop-color="#2245ff"/><stop offset="1" stop-color="#2935ff"/></linearGradient><linearGradient id="aR" x1="42.3" x2="35.9" y1="25.3" y2="3.5" gradientUnits="userSpaceOnUse"><stop stop-color="#2641ff"/><stop offset="1" stop-color="#2b32ff"/></linearGradient><linearGradient id="aS" x1="44.7" x2="40" y1="25.1" y2="2.3" gradientUnits="userSpaceOnUse"><stop stop-color="#273eff"/><stop offset="1" stop-color="#2d2dff"/></linearGradient><linearGradient id="aT" x1="47.1" x2="44.3" y1="24.6" y2="1.5" gradientUnits="userSpaceOnUse"><stop stop-color="#2a3bff"/><stop offset="1" stop-color="#2e2cff"/></linearGradient><linearGradient id="aU" x1="48.9" x2="48.4" y1="24.2" y2="1.4" gradientUnits="userSpaceOnUse"><stop stop-color="#2f38ff"/><stop offset="1" stop-color="#2f28ff"/></linearGradient><linearGradient id="aV" x1="51" x2="52.6" y1="24.8" y2="1.1" gradientUnits="userSpaceOnUse"><stop stop-color="#3336ff"/><stop offset="1" stop-color="#3c22fe"/></linearGradient><linearGradient id="aW" x1="53.2" x2="56.8" y1="24.8" y2="1.6" gradientUnits="userSpaceOnUse"><stop stop-color="#3931ff"/><stop offset="1" stop-color="#3c22fe"/></linearGradient><linearGradient id="aX" x1="56.2" x2="61.5" y1="25.2" y2="1.8" gradientUnits="userSpaceOnUse"><stop stop-color="#3d30ff"/><stop offset="1" stop-color="#4120fe"/></linearGradient><linearGradient id="aY" x1="57.4" x2="65.1" y1="25.1" y2="3" gradientUnits="userSpaceOnUse"><stop stop-color="#422dff"/><stop offset="1" stop-color="#441dfe"/></linearGradient><linearGradient id="aZ" x1="59.8" x2="68.7" y1="25.2" y2="5.7" gradientUnits="userSpaceOnUse"><stop stop-color="#4729ff"/><stop offset="1" stop-color="#471cfe"/></linearGradient><linearGradient id="ba" x1="62.3" x2="73.1" y1="27" y2="7.1" gradientUnits="userSpaceOnUse"><stop stop-color="#4b27ff"/><stop offset="1" stop-color="#4e19fd"/></linearGradient><linearGradient id="bb" x1="63.7" x2="76.8" y1="28.3" y2="8.8" gradientUnits="userSpaceOnUse"><stop stop-color="#5225ff"/><stop offset="1" stop-color="#5416fe"/></linearGradient><linearGradient id="bc" x1="65.5" x2="79.9" y1="28.9" y2="11.5" gradientUnits="userSpaceOnUse"><stop stop-color="#5821ff"/><stop offset="1" stop-color="#5813fd"/></linearGradient><linearGradient id="bd" x1="67.3" x2="83.2" y1="30.9" y2="14.5" gradientUnits="userSpaceOnUse"><stop stop-color="#5c20ff"/><stop offset="1" stop-color="#5c12fd"/></linearGradient><linearGradient id="be" x1="69.4" x2="87.1" y1="32.6" y2="17" gradientUnits="userSpaceOnUse"><stop stop-color="#621dff"/><stop offset="1" stop-color="#6210fc"/></linearGradient><linearGradient id="bf" x1="70.8" x2="89.3" y1="34.7" y2="20.9" gradientUnits="userSpaceOnUse"><stop stop-color="#651bff"/><stop offset="1" stop-color="#670cfd"/></linearGradient><linearGradient id="bg" x1="71.8" x2="91.5" y1="36.4" y2="24.4" gradientUnits="userSpaceOnUse"><stop stop-color="#6b1aff"/><stop offset="1" stop-color="#6c0cfc"/></linearGradient><linearGradient id="bh" x1="73.2" x2="95" y1="38.1" y2="27.4" gradientUnits="userSpaceOnUse"><stop stop-color="#7116ff"/><stop offset="1" stop-color="#710afc"/></linearGradient><linearGradient id="bi" x1="73.7" x2="96.4" y1="40.6" y2="31.7" gradientUnits="userSpaceOnUse"><stop stop-color="#7615ff"/><stop offset="1" stop-color="#7309fb"/></linearGradient><linearGradient id="bj" x1="74.7" x2="97.1" y1="42.4" y2="35.9" gradientUnits="userSpaceOnUse"><stop stop-color="#7813ff"/><stop offset="1" stop-color="#7809fc"/></linearGradient><linearGradient id="bk" x1="75.2" x2="98.4" y1="45.5" y2="40.5" gradientUnits="userSpaceOnUse"><stop stop-color="#7a13ff"/><stop offset="1" stop-color="#7b08fc"/></linearGradient><linearGradient id="bl" x1="75.3" x2="98.7" y1="47.5" y2="44.6" gradientUnits="userSpaceOnUse"><stop stop-color="#8114ff"/><stop offset="1" stop-color="#8007fb"/></linearGradient><linearGradient id="bm" x1="75.8" x2="98.8" y1="49.1" y2="48.7" gradientUnits="userSpaceOnUse"><stop stop-color="#8114ff"/><stop offset="1" stop-color="#8007fb"/></linearGradient><linearGradient id="bn" x1="75.5" x2="98.8" y1="50.4" y2="52.5" gradientUnits="userSpaceOnUse"><stop stop-color="#8315ff"/><stop offset="1" stop-color="#8109fc"/></linearGradient><linearGradient id="bo" x1="75.1" x2="99.5" y1="53.3" y2="57.2" gradientUnits="userSpaceOnUse"><stop stop-color="#8315ff"/><stop offset="1" stop-color="#8109fc"/></linearGradient><linearGradient id="bp" x1="74.7" x2="99" y1="55.7" y2="61.7" gradientUnits="userSpaceOnUse"><stop stop-color="#8419ff"/><stop offset="1" stop-color="#8109fb"/></linearGradient><linearGradient id="bq" x1="73.9" x2="97.2" y1="58.6" y2="66.1" gradientUnits="userSpaceOnUse"><stop stop-color="#8419ff"/><stop offset="1" stop-color="#800afa"/></linearGradient><linearGradient id="br" x1="72.8" x2="95" y1="60.5" y2="69.9" gradientUnits="userSpaceOnUse"><stop stop-color="#841aff"/><stop offset="1" stop-color="#810cfc"/></linearGradient><linearGradient id="bs" x1="72" x2="94.7" y1="61.8" y2="74.4" gradientUnits="userSpaceOnUse"><stop stop-color="#821cff"/><stop offset="1" stop-color="#7e0dfa"/></linearGradient><linearGradient id="bt" x1="71.2" x2="92.4" y1="64.2" y2="78.3" gradientUnits="userSpaceOnUse"><stop stop-color="#8221ff"/><stop offset="1" stop-color="#7c11fc"/></linearGradient><linearGradient id="bu" x1="69.1" x2="88.6" y1="66.1" y2="81.3" gradientUnits="userSpaceOnUse"><stop offset=".1" stop-color="#7f24ff"/><stop offset="1" stop-color="#7a16fc"/></linearGradient><linearGradient id="bv" x1="67.7" x2="85" y1="68.2" y2="84.1" gradientUnits="userSpaceOnUse"><stop stop-color="#7e29ff"/><stop offset="1" stop-color="#751bfc"/></linearGradient><linearGradient id="bw" x1="66.5" x2="82.3" y1="68.9" y2="86.8" gradientUnits="userSpaceOnUse"><stop stop-color="#792fff"/><stop offset="1" stop-color="#7121fd"/></linearGradient><linearGradient id="bx" x1="64.5" x2="78.7" y1="70.6" y2="89.6" gradientUnits="userSpaceOnUse"><stop stop-color="#7732ff"/><stop offset="1" stop-color="#6f28fc"/></linearGradient><linearGradient id="by" x1="62.6" x2="75.1" y1="71.4" y2="91.6" gradientUnits="userSpaceOnUse"><stop stop-color="#7438ff"/><stop offset="1" stop-color="#692dfc"/></linearGradient><linearGradient id="bz" x1="61.6" x2="71.9" y1="72.5" y2="94" gradientUnits="userSpaceOnUse"><stop stop-color="#713fff"/><stop offset="1" stop-color="#6434fc"/></linearGradient><linearGradient id="bA" x1="58.3" x2="67.3" y1="73.5" y2="95.4" gradientUnits="userSpaceOnUse"><stop stop-color="#6c48ff"/><stop offset="1" stop-color="#623bfe"/></linearGradient><linearGradient id="bB" x1="57" x2="63.6" y1="74" y2="96.7" gradientUnits="userSpaceOnUse"><stop stop-color="#6651ff"/><stop offset="1" stop-color="#5c42fd"/></linearGradient><linearGradient id="bC" x1="55.3" x2="59.6" y1="75.3" y2="97.7" gradientUnits="userSpaceOnUse"><stop stop-color="#615aff"/><stop offset="1" stop-color="#594bfd"/></linearGradient><linearGradient id="bD" x1="52.4" x2="55.2" y1="74.4" y2="98.8" gradientUnits="userSpaceOnUse"><stop stop-color="#5e61ff"/><stop offset="1" stop-color="#5554fd"/></linearGradient><linearGradient id="bE" x1="51.5" x2="51.5" y1="74.8" y2="98.7" gradientUnits="userSpaceOnUse"><stop offset="0" stop-color="#576bff"/><stop offset="1" stop-color="#4a62fd"/></linearGradient><linearGradient id="bF" x1="48.4" x2="46.9" y1="75" y2="98.1" gradientUnits="userSpaceOnUse"><stop offset="0" stop-color="#5174ff"/><stop offset="1" stop-color="#466dfe"/></linearGradient><linearGradient id="bG" x1="46.4" x2="42.7" y1="74.3" y2="98" gradientUnits="userSpaceOnUse"><stop offset="0" stop-color="#4b80ff"/><stop offset="1" stop-color="#3e79fd"/></linearGradient><linearGradient id="bH" x1="43.5" x2="38.3" y1="73.6" y2="96.7" gradientUnits="userSpaceOnUse"><stop offset="0" stop-color="#458aff"/><stop offset="1" stop-color="#3981fe"/></linearGradient><linearGradient id="bI" x1="41.9" x2="34.6" y1="72.8" y2="95" gradientUnits="userSpaceOnUse"><stop offset="0" stop-color="#4090ff"/><stop offset="1" stop-color="#338ffe"/></linearGradient><linearGradient id="bJ" x1="40" x2="31" y1="71.9" y2="92.7" gradientUnits="userSpaceOnUse"><stop offset="0" stop-color="#3a9bff"/><stop offset="1" stop-color="#2f9bfe"/></linearGradient><linearGradient id="bK" x1="38.1" x2="23.3" y1="71.4" y2="98.6" gradientUnits="userSpaceOnUse"><stop offset="0" stop-color="#34a3ff"/><stop offset="1" stop-color="#269bfe"/></linearGradient><linearGradient id="bL" x1="35.1" x2="18" y1="72.1" y2="98.1" gradientUnits="userSpaceOnUse"><stop stop-color="#2faeff"/><stop offset="1" stop-color="#1d9cfe"/></linearGradient><linearGradient id="bM" x1="30.6" x2="12.2" y1="74.2" y2="97.2" gradientUnits="userSpaceOnUse"><stop stop-color="#2bb5ff"/><stop offset="1" stop-color="#14a1ff"/></linearGradient><linearGradient id="bN" x1="27.8" x2="8.3" y1="72.4" y2="93.6" gradientUnits="userSpaceOnUse"><stop stop-color="#1bbcff"/><stop offset="1" stop-color="#10a5ff"/></linearGradient><linearGradient id="bO" x1="26.7" x2="8.2" y1="70.3" y2="86.8" gradientUnits="userSpaceOnUse"><stop stop-color="#20bbff"/><stop offset="1" stop-color="#10abff"/></linearGradient><linearGradient id="bP" x1="25.9" x2="6.6" y1="67.9" y2="82" gradientUnits="userSpaceOnUse"><stop stop-color="#0ef"/><stop offset=".1" stop-color="#1cbbff"/><stop offset="1" stop-color="#10adff"/></linearGradient><linearGradient id="bQ" x1="26" x2="5.4" y1="64.6" y2="77.2" gradientUnits="userSpaceOnUse"><stop stop-color="#0ff"/><stop offset=".7" stop-color="#1bbcff"/><stop offset="1" stop-color="#0faeff"/></linearGradient><linearGradient id="bT" x1="4.5" x2="45.5" y1="45.8" y2="4.8" gradientUnits="userSpaceOnUse"><stop stop-color="#00eaff" stop-opacity=".3"/><stop offset=".3" stop-color="#00eaff"/><stop offset=".6" stop-color="#00eaff"/><stop offset="1" stop-color="#00eaff" stop-opacity="0"/></linearGradient><linearGradient id="bV" x1="4.5" x2="45.5" y1="45.8" y2="4.8" gradientUnits="userSpaceOnUse"><stop stop-color="#00eaff" stop-opacity="0"/><stop offset=".3" stop-color="#00eaff"/><stop offset=".7" stop-color="#00eaff" stop-opacity="0"/></linearGradient><linearGradient id="bX" x1="45.9" x2="4.9" y1="6.1" y2="44.7" gradientUnits="userSpaceOnUse"><stop stop-color="#00eaff" stop-opacity="0"/><stop offset=".6" stop-color="#fff" stop-opacity=".7"/><stop offset="1" stop-color="#00eaff" stop-opacity="0"/></linearGradient><linearGradient id="bZ" x1="84.1" x2="50.2" y1="83.9" y2="51.4" gradientUnits="userSpaceOnUse"><stop offset=".1" stop-color="#fff"/><stop offset=".3" stop-color="#fff" stop-opacity="0"/></linearGradient><linearGradient id="cb" x1="19.4" x2="80.1" y1="19.7" y2="80.4" gradientUnits="userSpaceOnUse"><stop stop-color="#00eaff"/><stop offset=".1" stop-color="#fff" stop-opacity=".5"/><stop offset=".3" stop-color="#fff" stop-opacity="0"/><stop offset=".6" stop-color="#fff" stop-opacity="0"/><stop offset=".9" stop-color="#fff"/></linearGradient><linearGradient id="cd" x1="19.4" x2="80.1" y1="19.7" y2="80.4" gradientUnits="userSpaceOnUse"><stop stop-color="#00eaff"/><stop offset=".1" stop-color="#fff" stop-opacity=".5"/><stop offset=".3" stop-color="#fff" stop-opacity="0"/><stop offset=".6" stop-color="#fff" stop-opacity="0"/><stop offset=".9" stop-color="#fff"/></linearGradient><linearGradient id="cg" x1="19.4" x2="80.1" y1="19.7" y2="80.4" gradientUnits="userSpaceOnUse"><stop stop-color="#00eaff"/><stop offset=".1" stop-color="#fff" stop-opacity=".5"/><stop offset=".3" stop-color="#fff" stop-opacity="0"/><stop offset=".6" stop-color="#fff" stop-opacity="0"/><stop offset=".9" stop-color="#fff"/></linearGradient><linearGradient id="ci" x1="18.3" x2="81.8" y1="23.4" y2="77.3" gradientUnits="userSpaceOnUse"><stop stop-color="#fff"/><stop offset=".4" stop-color="#fff" stop-opacity="0"/><stop offset=".5" stop-color="#fff" stop-opacity="0"/><stop offset=".6" stop-color="#fff" stop-opacity="0"/><stop offset="1" stop-color="#fff"/></linearGradient><linearGradient id="ck" x1="18.3" x2="81.8" y1="23.4" y2="77.3" gradientUnits="userSpaceOnUse"><stop stop-color="#fff"/><stop offset=".1" stop-color="#fff" stop-opacity="0"/><stop offset=".5" stop-color="#fff" stop-opacity="0"/><stop offset=".9" stop-color="#fff" stop-opacity="0"/><stop offset="1" stop-color="#fff"/></linearGradient><linearGradient id="co" x1="84.1" x2="50.2" y1="83.9" y2="51.4" gradientUnits="userSpaceOnUse"><stop offset=".1" stop-color="#fff"/><stop offset=".3" stop-color="#fff" stop-opacity="0"/></linearGradient><filter id="aw" width="176.3" height="176.3" x="-38.5" y="-38.1" color-interpolation-filters="sRGB" filterUnits="userSpaceOnUse"><feFlood flood-opacity="0" result="BackgroundImageFix"/><feBlend in="SourceGraphic" in2="BackgroundImageFix" result="shape"/><feGaussianBlur result="effect1_foregroundBlur_8450_2610" stdDeviation="8.6"/></filter><filter id="bR" width="66.8" height="66.8" x="-4" y="-3.7" color-interpolation-filters="sRGB" filterUnits="userSpaceOnUse"><feFlood flood-opacity="0" result="BackgroundImageFix"/><feBlend in="SourceGraphic" in2="BackgroundImageFix" result="shape"/><feGaussianBlur result="effect1_foregroundBlur_8450_2610" stdDeviation="6.4"/></filter><filter id="bS" width="55.2" height="55.2" x="1.8" y="2.1" color-interpolation-filters="sRGB" filterUnits="userSpaceOnUse"><feFlood flood-opacity="0" result="BackgroundImageFix"/><feBlend in="SourceGraphic" in2="BackgroundImageFix" result="shape"/><feGaussianBlur result="effect1_foregroundBlur_8450_2610" stdDeviation="3.6"/></filter><filter id="bU" width="55.2" height="55.2" x="1.8" y="2.1" color-interpolation-filters="sRGB" filterUnits="userSpaceOnUse"><feFlood flood-opacity="0" result="BackgroundImageFix"/><feBlend in="SourceGraphic" in2="BackgroundImageFix" result="shape"/><feGaussianBlur result="effect1_foregroundBlur_8450_2610" stdDeviation="3.6"/></filter><filter id="bW" width="52.4" height="52.4" x="3.2" y="3.5" color-interpolation-filters="sRGB" filterUnits="userSpaceOnUse"><feFlood flood-opacity="0" result="BackgroundImageFix"/><feBlend in="SourceGraphic" in2="BackgroundImageFix" result="shape"/><feGaussianBlur result="effect1_foregroundBlur_8450_2610" stdDeviation="2.9"/></filter><filter id="bY" width="69.5" height="69.5" x="37" y="37.4" color-interpolation-filters="sRGB" filterUnits="userSpaceOnUse"><feFlood flood-opacity="0" result="BackgroundImageFix"/><feBlend in="SourceGraphic" in2="BackgroundImageFix" result="shape"/><feGaussianBlur result="effect1_foregroundBlur_8450_2610" stdDeviation="6.4"/></filter><filter id="ca" width="107.6" height="107.6" x="-3.8" y="-3.5" color-interpolation-filters="sRGB" filterUnits="userSpaceOnUse"><feFlood flood-opacity="0" result="BackgroundImageFix"/><feBlend in="SourceGraphic" in2="BackgroundImageFix" result="shape"/><feGaussianBlur result="effect1_foregroundBlur_8450_2610" stdDeviation="6.4"/></filter><filter id="cc" width="96.2" height="96.2" x="1.9" y="2.2" color-interpolation-filters="sRGB" filterUnits="userSpaceOnUse"><feFlood flood-opacity="0" result="BackgroundImageFix"/><feBlend in="SourceGraphic" in2="BackgroundImageFix" result="shape"/><feGaussianBlur result="effect1_foregroundBlur_8450_2610" stdDeviation="3.6"/></filter><filter id="ce" width="96.2" height="96.2" x="1.9" y="2.2" color-interpolation-filters="sRGB" filterUnits="userSpaceOnUse"><feFlood flood-opacity="0" result="BackgroundImageFix"/><feBlend in="SourceGraphic" in2="BackgroundImageFix" result="shape"/><feGaussianBlur result="effect1_foregroundBlur_8450_2610" stdDeviation="3.6"/></filter><filter id="cf" width="93.3" height="93.3" x="3.3" y="3.6" color-interpolation-filters="sRGB" filterUnits="userSpaceOnUse"><feFlood flood-opacity="0" result="BackgroundImageFix"/><feBlend in="SourceGraphic" in2="BackgroundImageFix" result="shape"/><feGaussianBlur result="effect1_foregroundBlur_8450_2610" stdDeviation="2.9"/></filter><filter id="ch" width="96.2" height="96.2" x="1.9" y="2.2" color-interpolation-filters="sRGB" filterUnits="userSpaceOnUse"><feFlood flood-opacity="0" result="BackgroundImageFix"/><feBlend in="SourceGraphic" in2="BackgroundImageFix" result="shape"/><feGaussianBlur result="effect1_foregroundBlur_8450_2610" stdDeviation="3.6"/></filter><filter id="cj" width="93.3" height="93.3" x="3.3" y="3.6" color-interpolation-filters="sRGB" filterUnits="userSpaceOnUse"><feFlood flood-opacity="0" result="BackgroundImageFix"/><feBlend in="SourceGraphic" in2="BackgroundImageFix" result="shape"/><feGaussianBlur result="effect1_foregroundBlur_8450_2610" stdDeviation="2.9"/></filter><filter id="cl" width="83.3" height="83.3" x="8.3" y="8.6" color-interpolation-filters="sRGB" filterUnits="userSpaceOnUse"><feFlood flood-opacity="0" result="BackgroundImageFix"/><feBlend in="SourceGraphic" in2="BackgroundImageFix" result="shape"/><feGaussianBlur result="effect1_foregroundBlur_8450_2610" stdDeviation="4.3"/></filter><filter id="cm" width="91.9" height="91.9" x="4" y="4.3" color-interpolation-filters="sRGB" filterUnits="userSpaceOnUse"><feFlood flood-opacity="0" result="BackgroundImageFix"/><feBlend in="SourceGraphic" in2="BackgroundImageFix" result="shape"/><feGaussianBlur result="effect1_foregroundBlur_8450_2610" stdDeviation="6.4"/></filter><filter id="cn" width="69.5" height="69.5" x="37" y="37.4" color-interpolation-filters="sRGB" filterUnits="userSpaceOnUse"><feFlood flood-opacity="0" result="BackgroundImageFix"/><feBlend in="SourceGraphic" in2="BackgroundImageFix" result="shape"/><feGaussianBlur result="effect1_foregroundBlur_8450_2610" stdDeviation="6.4"/></filter><filter id="cp" width="66.8" height="66.8" x="-4" y="-3.7" color-interpolation-filters="sRGB" filterUnits="userSpaceOnUse"><feFlood flood-opacity="0" result="BackgroundImageFix"/><feBlend in="SourceGraphic" in2="BackgroundImageFix" result="shape"/><feGaussianBlur result="effect1_foregroundBlur_8450_2610" stdDeviation="6.4"/></filter><clipPath id="a"><path fill="#fff" d="M0 0h100v100H0z"/></clipPath></defs></svg>