<svg xmlns="http://www.w3.org/2000/svg" width="100" height="100" fill="none" viewBox="0 0 100 100"><g clip-path="url(#a)"><mask id="b" width="100" height="100" x="0" y="0" maskUnits="userSpaceOnUse" style="mask-type:luminance"><path fill="#fff" d="M50.8.3a49.3 49.3 0 0 1 49 49.8A49 49 0 0 1 51 99.5c-9.4 0-14-1.3-21.3-6.6q-1-.4-1.7.2c-5.6 6-20.1 10.3-20.8 2C7.2 80.9 0 71.5 0 50A50 50 0 0 1 50.8.3m.7 24.5c-13-.7-23.2 8.4-25.5 22.6-1.9 11.7 1.4 26 4.3 26.8 1.2.3 4-2 6.2-3.9q.7-.6 1.4-.2 5 3.2 11 3.8c13.5.7 25.4-9.8 26-23.3a25 25 0 0 0-23.4-25.8"/></mask><g fill="#fff" mask="url(#b)"><path d="m49.7 50-62.1 34.5q-1.6-2.7-2.8-5.5z"/><path d="m49.7 50-64.9 29-2.2-5.8z"/><path d="m49.7 50-67.1 23.2-1.8-6z"/><path d="m49.7 50-68.9 17.3q-.8-3-1.2-6.1z"/><path d="m49.7 50-70.1 11.2q-.6-3-.7-6.2z"/><path d="m49.7 50-70.8 5q-.2-3-.2-6.2z"/><path d="m49.7 50-71-1.2q0-3 .4-6.1z"/><path d="m49.7 50-70.6-7.3q.3-3.1.9-6.2z"/><path d="M49.7 50-20 36.6l1.4-6zm0 0-68.3-19.5 2-5.9z"/><path d="m49.7 50-66.3-25.4q1.1-2.9 2.5-5.6z"/><path d="m49.7 50-63.8-31q1.4-2.8 3-5.5z"/><path d="m49.7 50-60.9-36.5 3.5-5.2z"/><path d="M49.7 50-7.8 8.4l3.9-4.8z"/><path d="M49.7 50-3.9 3.6.4-1z"/><path d="M49.7 50 .4-1 5-5.1z"/><path d="M49.7 50 5-5l5-3.7z"/><path d="M49.7 50 10-8.7l5.3-3.2zm0 0L15.3-12q2.7-1.6 5.5-2.8z"/><path d="M49.7 50 20.8-14.7l5.8-2.3z"/><path d="M49.7 50 26.6-17l6-1.8z"/><path d="M49.7 50 32.5-18.7q3-.8 6-1.3zm0 0L38.6-20q3-.6 6.1-.7zm0 0-5-70.8q3.2-.2 6.2-.1z"/><path d="m49.7 50 1.2-71 6.2.5z"/><path d="m49.7 50 7.4-70.5q3 .3 6.1.9zm0 0 13.5-69.6 6 1.4zm0 0 19.6-68.2 5.8 2z"/><path d="m49.7 50 25.4-66.2q3 1.1 5.7 2.5zm0 0 31.1-63.7q2.8 1.4 5.5 3z"/><path d="m49.7 50 36.6-60.8 5.1 3.4zm0 0L91.4-7.3l4.9 3.9z"/><path d="M49.7 50 96.3-3.4l4.5 4.3z"/><path d="m49.7 50 51-49.2Q103 3 105 5.4z"/><path d="m49.7 50 55.2-44.6 3.7 5z"/><path d="m49.7 50 58.9-39.6q1.7 2.5 3.2 5.3zm0 0 62.1-34.3q1.6 2.7 2.8 5.5z"/><path d="m49.7 50 64.9-28.8q1.2 2.8 2.2 5.8z"/><path d="m49.7 50 67.1-23 1.8 6z"/><path d="m49.7 50 68.9-17q.8 3 1.2 6z"/><path d="m49.7 50 70.1-11q.5 3 .7 6.1z"/><path d="m49.7 50 70.8-4.9q.3 3.2.2 6.2z"/><path d="m49.7 50 71 1.3q0 3.1-.4 6.2z"/><path d="m49.7 50 70.6 7.5-.9 6.1z"/><path d="m49.7 50 69.7 13.6-1.4 6zm0 0L118 69.8l-2 5.8z"/><path d="M49.7 50 116 75.6q-1.2 3-2.5 5.7z"/><path d="m49.7 50 63.8 31.2q-1.4 2.8-3 5.5z"/><path d="m49.7 50 60.9 36.7-3.5 5.1z"/><path d="m49.7 50 57.4 41.8-3.8 4.9z"/><path d="m49.7 50 53.6 46.7-4.3 4.5zm0 0L99 101.3l-4.6 4z"/><path d="m49.7 50 44.7 55.3-5 3.7z"/><path d="m49.7 50 39.7 59-5.3 3.2zm0 0 34.4 62.2q-2.7 1.6-5.5 2.8z"/><path d="m49.7 50 28.9 65-5.8 2.2z"/><path d="m49.7 50 23.1 67.2-6 1.8z"/><path d="m49.7 50 17.2 69-6 1.2zm0 0 11.1 70.2q-3 .5-6.2.7z"/><path d="m49.7 50 5 71h-6.2z"/><path d="m49.7 50-1.2 71q-3.2 0-6.2-.3z"/><path d="m49.7 50-7.4 70.7q-3-.3-6.2-1z"/><path d="m49.7 50-13.6 69.8-6-1.5z"/><path d="m49.7 50-19.6 68.3q-3-.8-5.8-2zm0 0-25.5 66.4-5.6-2.5z"/><path d="m49.7 50-31.1 64q-2.8-1.4-5.5-3z"/><path d="m49.7 50-36.6 61-5.1-3.5z"/><path d="M49.7 50 8 107.6l-5-3.9z"/><path d="M49.7 50 3.1 103.8l-4.5-4.3zm0 0-51 49.4q-2.2-2.2-4.2-4.6z"/><path d="M49.7 50-5.5 94.9l-3.7-5z"/><path d="M49.7 50-9.2 89.9l-3.2-5.3z"/><g filter="url(#c)"><path d="m49.7 50-62.1 34.5q-1.6-2.7-2.8-5.5z"/><path d="m49.7 50-64.9 29-2.2-5.8z"/><path d="m49.7 50-67.1 23.2-1.8-6z"/><path d="m49.7 50-68.9 17.3q-.8-3-1.2-6.1z"/><path d="m49.7 50-70.1 11.2q-.6-3-.7-6.2z"/><path d="m49.7 50-70.8 5q-.2-3-.2-6.2z"/><path d="m49.7 50-71-1.2q0-3 .4-6.1z"/><path d="m49.7 50-70.6-7.3q.3-3.1.9-6.2z"/><path d="M49.7 50-20 36.6l1.4-6zm0 0-68.3-19.5 2-5.9z"/><path d="m49.7 50-66.3-25.4q1.1-2.9 2.5-5.6z"/><path d="m49.7 50-63.8-31q1.4-2.8 3-5.5z"/><path d="m49.7 50-60.9-36.5 3.5-5.2z"/><path d="M49.7 50-7.8 8.4l3.9-4.8z"/><path d="M49.7 50-3.9 3.6.4-1z"/><path d="M49.7 50 .4-1 5-5.1z"/><path d="M49.7 50 5-5l5-3.7z"/><path d="M49.7 50 10-8.7l5.3-3.2zm0 0L15.3-12q2.7-1.6 5.5-2.8z"/><path d="M49.7 50 20.8-14.7l5.8-2.3z"/><path d="M49.7 50 26.6-17l6-1.8z"/><path d="M49.7 50 32.5-18.7q3-.8 6-1.3zm0 0L38.6-20q3-.6 6.1-.7zm0 0-5-70.8q3.2-.2 6.2-.1z"/><path d="m49.7 50 1.2-71 6.2.5z"/><path d="m49.7 50 7.4-70.5q3 .3 6.1.9zm0 0 13.5-69.6 6 1.4zm0 0 19.6-68.2 5.8 2z"/><path d="m49.7 50 25.4-66.2q3 1.1 5.7 2.5zm0 0 31.1-63.7q2.8 1.4 5.5 3z"/><path d="m49.7 50 36.6-60.8 5.1 3.4zm0 0L91.4-7.3l4.9 3.9z"/><path d="M49.7 50 96.3-3.4l4.5 4.3z"/><path d="m49.7 50 51-49.2Q103 3 105 5.4z"/><path d="m49.7 50 55.2-44.6 3.7 5z"/><path d="m49.7 50 58.9-39.6q1.7 2.5 3.2 5.3zm0 0 62.1-34.3q1.6 2.7 2.8 5.5z"/><path d="m49.7 50 64.9-28.8q1.2 2.8 2.2 5.8z"/><path d="m49.7 50 67.1-23 1.8 6z"/><path d="m49.7 50 68.9-17q.8 3 1.2 6z"/><path d="m49.7 50 70.1-11q.5 3 .7 6.1z"/><path d="m49.7 50 70.8-4.9q.3 3.2.2 6.2z"/><path d="m49.7 50 71 1.3q0 3.1-.4 6.2z"/><path d="m49.7 50 70.6 7.5-.9 6.1z"/><path d="m49.7 50 69.7 13.6-1.4 6zm0 0L118 69.8l-2 5.8z"/><path d="M49.7 50 116 75.6q-1.2 3-2.5 5.7z"/><path d="m49.7 50 63.8 31.2q-1.4 2.8-3 5.5z"/><path d="m49.7 50 60.9 36.7-3.5 5.1z"/><path d="m49.7 50 57.4 41.8-3.8 4.9z"/><path d="m49.7 50 53.6 46.7-4.3 4.5zm0 0L99 101.3l-4.6 4z"/><path d="m49.7 50 44.7 55.3-5 3.7z"/><path d="m49.7 50 39.7 59-5.3 3.2zm0 0 34.4 62.2q-2.7 1.6-5.5 2.8z"/><path d="m49.7 50 28.9 65-5.8 2.2z"/><path d="m49.7 50 23.1 67.2-6 1.8z"/><path d="m49.7 50 17.2 69-6 1.2zm0 0 11.1 70.2q-3 .5-6.2.7z"/><path d="m49.7 50 5 71h-6.2z"/><path d="m49.7 50-1.2 71q-3.2 0-6.2-.3z"/><path d="m49.7 50-7.4 70.7q-3-.3-6.2-1z"/><path d="m49.7 50-13.6 69.8-6-1.5z"/><path d="m49.7 50-19.6 68.3q-3-.8-5.8-2zm0 0-25.5 66.4-5.6-2.5z"/><path d="m49.7 50-31.1 64q-2.8-1.4-5.5-3z"/><path d="m49.7 50-36.6 61-5.1-3.5z"/><path d="M49.7 50 8 107.6l-5-3.9z"/><path d="M49.7 50 3.1 103.8l-4.5-4.3zm0 0-51 49.4q-2.2-2.2-4.2-4.6z"/><path d="M49.7 50-5.5 94.9l-3.7-5z"/><path d="M49.7 50-9.2 89.9l-3.2-5.3z"/></g></g></g><defs><clipPath id="a"><path fill="#fff" d="M0 0h100v100H0z"/></clipPath><filter id="c" width="176.3" height="176.3" x="-38.5" y="-38.1" color-interpolation-filters="sRGB" filterUnits="userSpaceOnUse"><feFlood flood-opacity="0" result="BackgroundImageFix"/><feBlend in="SourceGraphic" in2="BackgroundImageFix" result="shape"/><feGaussianBlur result="effect1_foregroundBlur_8510_8338" stdDeviation="8.6"/></filter></defs></svg>